<?xml version="1.0" encoding="UTF-8"?>
<svg width="24" height="24" viewBox="0 0 24 24" fill="none" xmlns="http://www.w3.org/2000/svg">
    <path d="M12 15C13.6569 15 15 13.6569 15 12C15 10.3431 13.6569 9 12 9C10.3431 9 9 10.3431 9 12C9 13.6569 10.3431 15 12 15Z" stroke="#21D4FD" stroke-width="2"/>
    <path d="M19 12C19 15.866 15.866 19 12 19C8.13401 19 5 15.866 5 12C5 8.13401 8.13401 5 12 5C15.866 5 19 8.13401 19 12Z" stroke="#21D4FD" stroke-width="2"/>
    <path d="M12 5V3" stroke="#21D4FD" stroke-width="2" stroke-linecap="round"/>
    <path d="M12 21V19" stroke="#21D4FD" stroke-width="2" stroke-linecap="round"/>
    <path d="M5 12H3" stroke="#21D4FD" stroke-width="2" stroke-linecap="round"/>
    <path d="M21 12H19" stroke="#21D4FD" stroke-width="2" stroke-linecap="round"/>
</svg> 